<?xml version="1.0" encoding="UTF-8" standalone="no"?>
<!-- Created with Inkscape (http://www.inkscape.org/) -->

<svg
   width="199.99998"
   height="300"
   viewBox="0 0 52.916661 79.374998"
   version="1.1"
   id="svg5"
   xmlns="http://www.w3.org/2000/svg"
   xmlns:svg="http://www.w3.org/2000/svg"
   xmlns:rdf="http://www.w3.org/1999/02/22-rdf-syntax-ns#"
   xmlns:cc="http://creativecommons.org/ns#"
   xmlns:dc="http://purl.org/dc/elements/1.1/">
  <title
     id="title4202">map_pins</title>
  <defs
     id="defs2" />
  <g
     id="layer8"
     style="display:inline"
     transform="translate(-13.229167,-13.229164)">
    <path
       id="path3239"
       style="display:inline;fill:#784718;fill-opacity:1;stroke:none;stroke-width:1.74049;stroke-opacity:1"
       d="m 66.145833,39.6875 c 0,4.079437 -0.768047,10.734122 -3.911057,17.081965 -0.01914,0.03866 -0.03837,0.07731 -0.05769,0.115952 -2.645833,5.291666 -6.198189,11.653231 -7.9375,14.552083 -3.826849,6.378081 -3.859407,6.91446 -11.906253,18.520833 -0.29838,0.430369 -1.322916,2.645834 -2.645829,2.645834 -1.322921,0 -2.268018,-2.107679 -2.645837,-2.645834 C 28.794468,78.211271 28.466603,76.989476 25.135417,71.4375 23.307511,68.39099 19.84375,62.177083 17.197917,56.885417 14.124265,50.738113 13.229168,43.628682 13.229168,39.687497 c 0,-7.306266 2.96145,-13.92085 7.749467,-18.708866 4.788016,-4.788017 11.402599,-7.749467 18.708866,-7.749467 7.306268,0 13.92085,2.961451 18.708867,7.749467 1.369062,1.369061 2.588785,2.887461 3.63264,4.528668 2.606816,4.098583 4.116825,8.963052 4.116825,14.180201 z" />
    <path
       id="path3325"
       style="fill:#ffffff;fill-opacity:1;stroke:none;stroke-width:1.69993;stroke-opacity:1"
       d="m 47.711194,29.049531 -3.958074,2.452285 0.20631,-1.26876 -1.7315,-0.296162 -0.453791,2.790718 -7.916033,4.903878 1.7315,0.296162 1.972099,-1.183481 -1.788313,10.997771 2.290962,2.043506 2.106496,0.720149 1.755413,-0.720149 3.052904,-2.160448 3.96875,2.645833 c 0,0 5.02789,-3.446086 4.75424,-2.064387 0.210501,-1.208987 1.172853,-8.503093 1.172853,-8.503093 l 1.492589,1.778231 1.731502,0.29616 z" />
    <path
       id="rect3439"
       style="display:inline;fill:#784718;fill-opacity:1;stroke:none;stroke-width:1.65035;stroke-opacity:1"
       d="m 41.131774,38.364583 -0.555344,2.819685 2.959874,0.418145 0.555343,-2.819686 z m 7.792378,1.045988 -0.555342,2.819687 2.959873,0.418144 0.555343,-2.819686 z m -9.63351,4.696375 -1.198087,5.380165 c 0,0 2.125297,0.951658 3.893476,-0.272466 -1.160504,0.672672 0.319566,-1.04368 0.319566,-1.04368 l 0.684891,-3.541644 z" />
    <path
       id="path3245"
       style="display:inline;fill:#ffffff;fill-opacity:1;stroke:none;stroke-width:1.02601;stroke-opacity:1"
       d="m 25.717838,47.640803 c -1.933956,0 -4.641499,2.976562 -4.641499,2.976562 v 0.992188 c 0,0 2.707543,-2.976563 4.641499,-2.976563 1.933956,0 2.707544,2.976563 4.6415,2.976563 1.933955,0 2.707542,-2.976563 4.641499,-2.976563 1.933956,0 2.707543,2.976563 4.641499,2.976563 1.933956,0 2.707544,-2.976563 4.641499,-2.976563 1.933955,0 2.707543,2.976563 4.641499,2.976563 1.933957,0 2.707543,-2.976563 4.641499,-2.976563 1.933957,0 4.6415,2.976563 4.6415,2.976563 v -0.992188 c 0,0 -2.707543,-2.976562 -4.6415,-2.976562 -1.933956,0 -2.707542,2.976562 -4.641499,2.976562 -1.933956,0 -2.707544,-2.976562 -4.641499,-2.976562 -1.933955,0 -2.707543,2.976562 -4.641499,2.976562 -1.933956,0 -2.707543,-2.976562 -4.641499,-2.976562 -1.933957,0 -2.707544,2.976562 -4.641499,2.976562 -1.933956,0 -2.707544,-2.976562 -4.6415,-2.976562 z m 0,2.645833 c -1.933956,0 -4.641499,2.976562 -4.641499,2.976562 v 0.992188 c 0,0 2.707543,-2.976563 4.641499,-2.976563 1.933956,0 2.707544,2.976563 4.6415,2.976563 1.933955,0 2.707542,-2.976563 4.641499,-2.976563 1.933956,0 2.707543,2.976563 4.641499,2.976563 1.933956,0 2.707544,-2.976563 4.641499,-2.976563 1.933955,0 2.707543,2.976563 4.641499,2.976563 1.933957,0 2.707543,-2.976563 4.641499,-2.976563 1.933957,0 4.6415,2.976563 4.6415,2.976563 v -0.992188 c 0,0 -2.707543,-2.976562 -4.6415,-2.976562 -1.933956,0 -2.707542,2.976562 -4.641499,2.976562 -1.933956,0 -2.707544,-2.976562 -4.641499,-2.976562 -1.933955,0 -2.707543,2.976562 -4.641499,2.976562 -1.933956,0 -2.707543,-2.976562 -4.641499,-2.976562 -1.933957,0 -2.707544,2.976562 -4.641499,2.976562 -1.933956,0 -2.707544,-2.976562 -4.6415,-2.976562 z m 0,2.645833 c -1.933956,0 -4.641499,2.976563 -4.641499,2.976563 v 0.992187 c 0,0 2.707543,-2.976562 4.641499,-2.976562 1.933956,0 2.707544,2.976562 4.6415,2.976562 1.933955,0 2.707542,-2.976562 4.641499,-2.976562 1.933956,0 2.707543,2.976562 4.641499,2.976562 1.933956,0 2.707544,-2.976562 4.641499,-2.976562 1.933955,0 2.707543,2.976562 4.641499,2.976562 1.933957,0 2.707543,-2.976562 4.641499,-2.976562 1.933957,0 4.6415,2.976562 4.6415,2.976562 v -0.992187 c 0,0 -2.707543,-2.976563 -4.6415,-2.976563 -1.933956,0 -2.707542,2.976563 -4.641499,2.976563 -1.933956,0 -2.707544,-2.976563 -4.641499,-2.976563 -1.933955,0 -2.707543,2.976563 -4.641499,2.976563 -1.933956,0 -2.707543,-2.976563 -4.641499,-2.976563 -1.933957,0 -2.707544,2.976563 -4.641499,2.976563 -1.933956,0 -2.707544,-2.976563 -4.6415,-2.976563 z" />
    <path
       id="path3503"
       style="display:inline;fill:#fefdfb;fill-opacity:1;stroke:none;stroke-width:1.56938;stroke-opacity:1"
       d="m 30.903489,35.612093 -2.540111,3.810334 1.270056,-0.476541 -2.54011,3.810334 1.692993,-0.475876 -2.014849,3.400071 -0.843395,-0.78871 1.309124,-0.02651 -2.501662,-2.089751 1.002153,0.06164 -2.501042,-2.089753 -1.177034,3.151529 0.836575,-0.592527 -1.176414,3.151529 1.142926,-0.681341 -1.093935,3.478943 1.143547,-0.681339 2.223106,-0.949125 h 1.322916 l 2.857587,1.560861 -0.312552,-0.273729 1.053005,0.03579 0.01365,2.109635 0.833474,0.164369 L 31.75,50.270833 v -1.322916 l 1.957796,0.119304 1.005874,-0.560052 0.239997,-0.546794 -1.087114,-1.870371 1.693614,0.476541 -2.54011,-4.286212 1.693613,0.475877 -2.540111,-3.810334 1.270056,0.476541 z M 27.93982,46.090014 27.776722,46.620902 27.37797,46.247757 Z m -0.380148,1.238078 -0.07752,0.251193 -0.278445,-0.243903 z" />
    <path
       style="display:inline;fill:#784718;fill-opacity:1;stroke:none;stroke-width:1.02918;stroke-opacity:1"
       d="m 21.012628,49.721802 c 0,0 2.724279,-2.976563 4.670192,-2.976563 1.945914,0 2.724279,2.976563 4.670191,2.976563 1.945914,0 2.724281,-2.976563 4.670194,-2.976563 1.945913,0 2.724279,2.976563 4.670192,2.976563 1.945914,0 2.724278,-2.976563 4.670191,-2.976563 1.945914,0 2.72428,2.976563 4.670193,2.976563 1.945914,0 2.724279,-2.976563 4.670192,-2.976563 1.945913,0 4.670192,2.976563 4.670192,2.976563 v 0 0.992187 c 0,0 -2.724279,-2.976563 -4.670192,-2.976563 -1.945913,0 -2.724278,2.976563 -4.670192,2.976563 -1.945913,0 -2.724279,-2.976563 -4.670193,-2.976563 -1.945913,0 -2.724277,2.976563 -4.670191,2.976563 -1.945913,0 -2.724279,-2.976563 -4.670192,-2.976563 -1.945913,0 -2.72428,2.976563 -4.670194,2.976563 -1.945912,0 -2.724277,-2.976563 -4.670191,-2.976563 -1.945913,0 -4.670192,2.976563 -4.670192,2.976563 z"
       id="path3331" />
  </g>
  <metadata
     id="metadata1676">
    <rdf:RDF>
      <cc:Work
         rdf:about="">
        <dc:title>map_pins</dc:title>
        <dc:creator>
          <cc:Agent>
            <dc:title>Maria Maily</dc:title>
          </cc:Agent>
        </dc:creator>
        <cc:license
           rdf:resource="http://creativecommons.org/licenses/by-nc/4.0/" />
        <dc:date>05/2023</dc:date>
      </cc:Work>
      <cc:License
         rdf:about="http://creativecommons.org/licenses/by-nc/4.0/">
        <cc:permits
           rdf:resource="http://creativecommons.org/ns#Reproduction" />
        <cc:permits
           rdf:resource="http://creativecommons.org/ns#Distribution" />
        <cc:requires
           rdf:resource="http://creativecommons.org/ns#Notice" />
        <cc:requires
           rdf:resource="http://creativecommons.org/ns#Attribution" />
        <cc:prohibits
           rdf:resource="http://creativecommons.org/ns#CommercialUse" />
        <cc:permits
           rdf:resource="http://creativecommons.org/ns#DerivativeWorks" />
      </cc:License>
    </rdf:RDF>
  </metadata>
</svg>
