<?xml version="1.0" encoding="UTF-8" standalone="no"?>
<!-- Created with Inkscape (http://www.inkscape.org/) -->

<svg
   width="199.99998"
   height="300"
   viewBox="0 0 52.916661 79.374998"
   version="1.1"
   id="svg5"
   xmlns="http://www.w3.org/2000/svg"
   xmlns:svg="http://www.w3.org/2000/svg"
   xmlns:rdf="http://www.w3.org/1999/02/22-rdf-syntax-ns#"
   xmlns:cc="http://creativecommons.org/ns#"
   xmlns:dc="http://purl.org/dc/elements/1.1/">
  <title
     id="title4202">map_pins</title>
  <defs
     id="defs2" />
  <g
     id="g460"
     style="display:inline"
     transform="translate(-13.229167,-13.229164)">
    <path
       id="path454"
       style="display:inline;fill:#4b43d8;fill-opacity:1;stroke:none;stroke-width:1.74049;stroke-opacity:1"
       d="m 66.145833,39.6875 c 0,4.079437 -0.768047,10.734122 -3.911057,17.081965 -0.01914,0.03866 -0.03837,0.07731 -0.05769,0.115952 -2.645833,5.291666 -6.198189,11.653231 -7.9375,14.552083 -3.826849,6.378081 -3.859407,6.91446 -11.906253,18.520833 -0.29838,0.430369 -1.322916,2.645834 -2.645829,2.645834 -1.322921,0 -2.268018,-2.107679 -2.645837,-2.645834 C 28.794468,78.211271 28.466603,76.989476 25.135417,71.4375 23.307511,68.39099 19.84375,62.177083 17.197917,56.885417 14.124265,50.738113 13.229168,43.628682 13.229168,39.687497 c 0,-7.306266 2.96145,-13.92085 7.749467,-18.708866 4.788016,-4.788017 11.402599,-7.749467 18.708866,-7.749467 7.306268,0 13.92085,2.961451 18.708867,7.749467 1.369062,1.369061 2.588785,2.887461 3.63264,4.528668 2.606816,4.098583 4.116825,8.963052 4.116825,14.180201 z" />
    <path
       id="path456"
       style="display:inline;fill:#ffffff;fill-opacity:1;stroke:none;stroke-width:0.987076;stroke-opacity:1"
       d="m 24.784017,27.723732 c -2.058442,0 -4.940267,2.588315 -4.940267,2.588315 v 0.862772 c 0,0 2.881825,-2.588316 4.940267,-2.588316 2.058443,0 2.881825,2.588316 4.940267,2.588316 2.058442,0 2.881825,-2.588316 4.940267,-2.588316 2.058442,0 2.881824,2.588316 4.940267,2.588316 2.058442,0 2.881825,-2.588316 4.940267,-2.588316 2.058442,0 2.881825,2.588316 4.940266,2.588316 2.058443,0 2.881825,-2.588316 4.940267,-2.588316 2.058443,0 4.940268,2.588316 4.940268,2.588316 v -0.862772 c 0,0 -2.881825,-2.588315 -4.940268,-2.588315 -2.058442,0 -2.881824,2.588315 -4.940267,2.588315 -2.058441,0 -2.881824,-2.588315 -4.940266,-2.588315 -2.058442,0 -2.881825,2.588315 -4.940267,2.588315 -2.058443,0 -2.881825,-2.588315 -4.940267,-2.588315 -2.058442,0 -2.881825,2.588315 -4.940267,2.588315 -2.058442,0 -2.881824,-2.588315 -4.940267,-2.588315 z m 0,3.163496 c -2.058442,0 -4.940267,2.588315 -4.940267,2.588315 v 0.862772 c 0,0 2.881825,-2.588315 4.940267,-2.588315 2.058443,0 2.881825,2.588315 4.940267,2.588315 2.058442,0 2.881825,-2.588315 4.940267,-2.588315 2.058442,0 2.881824,2.588315 4.940267,2.588315 2.058442,0 2.881825,-2.588315 4.940267,-2.588315 2.058442,0 2.881825,2.588315 4.940266,2.588315 2.058443,0 2.881825,-2.588315 4.940267,-2.588315 2.058443,0 4.940268,2.588315 4.940268,2.588315 v -0.862772 c 0,0 -2.881825,-2.588315 -4.940268,-2.588315 -2.058442,0 -2.881824,2.588315 -4.940267,2.588315 -2.058441,0 -2.881824,-2.588315 -4.940266,-2.588315 -2.058442,0 -2.881825,2.588315 -4.940267,2.588315 -2.058443,0 -2.881825,-2.588315 -4.940267,-2.588315 -2.058442,0 -2.881825,2.588315 -4.940267,2.588315 -2.058442,0 -2.881824,-2.588315 -4.940267,-2.588315 z" />
    <path
       id="path516"
       style="fill:#fefffe;fill-opacity:1;stroke-width:1.97935"
       d="m 37.826754,42.333333 c 0,0 -3.177507,3.59851 -3.403798,5.756683 -0.292295,2.787668 2.801072,5.229074 2.775022,8.028717 -0.02472,2.656975 -2.997806,4.930876 -2.775022,7.58056 0.365813,4.350798 6.587994,11.706957 6.587994,11.706957 0,0 -2.576205,-7.765265 -2.195998,-11.706957 0.233212,-2.417735 2.872651,-4.450641 2.702107,-6.872502 -0.228549,-3.245583 -4.376831,-5.51637 -4.885238,-8.736775 -0.305044,-1.93224 1.194933,-5.756683 1.194933,-5.756683 z M 41.01095,75.40625 c 0,0 6.173863,-5.254466 5.910324,-8.607205 -0.09465,-1.204116 -2.353067,-1.609437 -2.585445,-2.798693 -0.55243,-2.827198 3.656933,-5.257624 3.263116,-8.105697 -0.321836,-2.3275 -4.391996,-5.853478 -4.391996,-5.853478 0,0 2.36009,3.801951 2.195998,5.853478 -0.232063,2.901297 -4.391997,4.896024 -4.391997,7.804638 0,1.454305 2.017396,2.456696 2.195999,3.902319 0.329326,2.665597 -2.195999,7.804638 -2.195999,7.804638 z" />
    <path
       id="path1277"
       style="fill:#fefffe;fill-opacity:1;stroke-width:1.56904"
       d="m 44.538195,36.43109 a 0.88194452,0.76322114 0 0 0 -0.881944,0.763222 0.88194452,0.76322114 0 0 0 0.881944,0.763221 0.88194452,0.76322114 0 0 0 0.881944,-0.763221 0.88194452,0.76322114 0 0 0 -0.881944,-0.763222 z m -3.527778,4.579327 a 0.88194452,0.76322114 0 0 0 -0.881945,0.763222 0.88194452,0.76322114 0 0 0 0.881945,0.763221 0.88194452,0.76322114 0 0 0 0.881945,-0.763221 0.88194452,0.76322114 0 0 0 -0.881945,-0.763222 z m 3.527778,4.579327 a 0.88194452,0.76322114 0 0 0 -0.881944,0.763222 0.88194452,0.76322114 0 0 0 0.881944,0.763221 0.88194452,0.76322114 0 0 0 0.881944,-0.763221 0.88194452,0.76322114 0 0 0 -0.881944,-0.763222 z" />
    <path
       id="path1337"
       style="fill:#fefffe;fill-opacity:1;stroke-width:2.12306"
       d="m 33.829376,69.287763 c -0.1454,-2.34e-4 -0.291001,0.01776 -0.437027,0.05827 -1.453443,0.403219 -3.010749,2.078462 -2.960873,3.729364 0.03317,1.098163 1.117933,2.330853 2.114909,2.330853 h 6.344729 c 1.576359,0 1.059456,-1.527812 0.845964,-2.330853 -0.341032,-1.282786 -1.890433,-1.702335 -2.960874,-2.330852 -0.930283,-0.54622 -1.929094,-1.45513 -2.946828,-1.456782 z m 13.052956,4.253805 c -0.417545,0.009 -0.950197,0.158589 -1.229291,0.466172 -0.422981,0.466168 0,1.398511 0,1.398511 h 1.691927 c 0,0 0.08538,-1.864684 -0.42298,-1.864683 -0.01327,0 -0.02618,-2.9e-4 -0.03966,0 z" />
  </g>
  <metadata
     id="metadata1676">
    <rdf:RDF>
      <cc:Work
         rdf:about="">
        <dc:title>map_pins</dc:title>
        <dc:creator>
          <cc:Agent>
            <dc:title>Maria Maily</dc:title>
          </cc:Agent>
        </dc:creator>
        <cc:license
           rdf:resource="http://creativecommons.org/licenses/by-nc/4.0/" />
        <dc:date>05/2023</dc:date>
      </cc:Work>
      <cc:License
         rdf:about="http://creativecommons.org/licenses/by-nc/4.0/">
        <cc:permits
           rdf:resource="http://creativecommons.org/ns#Reproduction" />
        <cc:permits
           rdf:resource="http://creativecommons.org/ns#Distribution" />
        <cc:requires
           rdf:resource="http://creativecommons.org/ns#Notice" />
        <cc:requires
           rdf:resource="http://creativecommons.org/ns#Attribution" />
        <cc:prohibits
           rdf:resource="http://creativecommons.org/ns#CommercialUse" />
        <cc:permits
           rdf:resource="http://creativecommons.org/ns#DerivativeWorks" />
      </cc:License>
    </rdf:RDF>
  </metadata>
</svg>
