<?xml version="1.0" encoding="UTF-8" standalone="no"?>
<!-- Created with Inkscape (http://www.inkscape.org/) -->

<svg
   width="199.99998"
   height="300"
   viewBox="0 0 52.916661 79.374998"
   version="1.1"
   id="svg5"
   xmlns="http://www.w3.org/2000/svg"
   xmlns:svg="http://www.w3.org/2000/svg"
   xmlns:rdf="http://www.w3.org/1999/02/22-rdf-syntax-ns#"
   xmlns:cc="http://creativecommons.org/ns#"
   xmlns:dc="http://purl.org/dc/elements/1.1/">
  <title
     id="title4202">map_pins</title>
  <defs
     id="defs2" />
  <g
     id="layer5"
     style="display:inline"
     transform="translate(-13.229167,-13.229164)">
    <path
       id="path5011"
       style="display:none;fill:#2a7945;fill-opacity:1;stroke:none;stroke-width:1.74049;stroke-opacity:1"
       d="m 67.411057,39.803452 c 0,4.079437 -0.768047,10.734122 -3.911057,17.081965 -0.01914,0.03866 -0.03837,0.07731 -0.05769,0.115952 -2.645833,5.291666 -6.198189,11.653231 -7.9375,14.552083 -3.826849,6.378081 -4.192323,6.642265 -12.239169,18.248638 -0.29838,0.430369 -2.097248,2.880199 -3.420161,2.880199 -1.322921,0 -1.16077,-2.069849 -1.538589,-2.608004 -8.247199,-11.747062 -8.575064,-12.968857 -11.90625,-18.520833 -1.827906,-3.04651 -5.291667,-9.260417 -7.9375,-14.552083 -3.073652,-6.147304 -3.968749,-13.256735 -3.968749,-17.19792 0,-7.306266 2.96145,-13.92085 7.749467,-18.708866 4.788016,-4.788017 11.402599,-7.749467 18.708866,-7.749467 7.306268,0 13.92085,2.961451 18.708867,7.749467 1.369062,1.369061 2.588785,2.887461 3.63264,4.528668 2.606816,4.098583 4.116825,8.963052 4.116825,14.180201 z" />
    <path
       id="path1893"
       style="display:inline;fill:#3aa960;fill-opacity:1;stroke:none;stroke-width:1.74049;stroke-opacity:1"
       d="m 66.145833,39.6875 c 0,4.079437 -0.768047,10.734122 -3.911057,17.081965 -0.01914,0.03866 -0.03837,0.07731 -0.05769,0.115952 -2.645833,5.291666 -6.198189,11.653231 -7.9375,14.552083 -3.826849,6.378081 -3.664102,6.992582 -11.710948,18.598955 -0.29838,0.430369 -1.518221,2.567712 -2.841134,2.567712 -1.322921,0 -2.268018,-2.107679 -2.645837,-2.645834 C 28.794468,78.211271 28.466603,76.989476 25.135417,71.4375 23.307511,68.39099 19.84375,62.177083 17.197917,56.885417 14.124265,50.738113 13.229168,43.628682 13.229168,39.687497 c 0,-7.306266 2.96145,-13.92085 7.749467,-18.708866 4.788016,-4.788017 11.402599,-7.749467 18.708866,-7.749467 7.306268,0 13.92085,2.961451 18.708867,7.749467 1.369062,1.369061 2.588785,2.887461 3.63264,4.528668 2.606816,4.098583 4.116825,8.963052 4.116825,14.180201 z" />
    <path
       id="path2183"
       style="display:inline;fill:#ffffff;fill-opacity:1;stroke:none;stroke-width:1.04454;stroke-opacity:1"
       d="m 40.047168,22.460128 c -0.118224,1.91e-4 -0.238004,0.0097 -0.359668,0.02945 -1.846727,0.299683 -2.377281,2.985168 -3.96875,3.96875 -1.186212,0.73312 -3.153386,0.19166 -3.96875,1.322917 -1.031363,1.43094 0,5.291667 0,5.291667 0,0 0.336874,-2.982707 1.322917,-3.96875 0.986043,-0.986043 2.782538,-0.589798 3.96875,-1.322917 1.06098,-0.655721 1.404646,-2.522932 2.645833,-2.645833 1.582208,-0.15667 2.540476,1.947288 3.96875,2.645833 1.252678,0.612664 3.153386,0.19166 3.96875,1.322917 0.773522,1.073205 -0.935443,3.033308 0,3.96875 1.322917,1.322915 2.446045,1.414681 2.645833,2.645833 0.315894,1.946621 -4.040309,3.897192 -2.645833,5.291667 1.322916,1.322914 1.978544,3.595817 1.322917,5.291666 -0.57333,1.482978 -2.916519,1.453886 -3.96875,2.645834 -1.305132,1.478429 -2.645834,5.291666 -2.645834,5.291666 0,0 3.701721,-3.96875 5.291667,-3.96875 2.645831,10e-7 4.294756,0.197584 5.291667,-1.322916 1.470729,-2.243174 -0.123344,-5.538355 -1.322917,-7.9375 -1.322916,-2.645832 2.645833,-3.319581 2.645833,-5.291667 0,-1.972086 -2.19274,-3.372336 -2.645833,-5.291667 -0.303944,-1.287525 0.838713,-2.945683 0,-3.96875 C 50.168211,24.71945 47.105986,25.86514 44.979167,25.135412 43.230407,24.535399 41.82053,22.45725 40.047168,22.460123 Z M 31.75,33.072917 c 0,0 -1.32292,2e-6 -3.96875,1.322916 -1.67337,0.836685 1.322916,2.645836 0,3.96875 -0.881944,0.881943 -1.322917,1.659791 -1.322917,2.645834 0,1.972085 2.645834,5.291666 2.645834,5.291666 0,0 -1.808249,-3.539466 -1.322917,-5.291666 0.332935,-1.202 2.168529,-1.493519 2.645833,-2.645834 0.506259,-1.222213 -1.322914,-2.645834 0,-3.96875 z m -2.645833,13.229166 c 0,0 -0.986043,2.982707 0,3.96875 1.322915,1.322916 5.291666,2.645834 5.291666,2.645834 0,0 -3.003662,-1.382292 -3.96875,-2.645834 -0.846437,-1.108199 -1.322916,-3.96875 -1.322916,-3.96875 z M 39.12061,33.072917 38.73252,53.443766 31.75,47.625 l 6.960815,6.960815 -0.346232,18.174602 h 2.645834 L 40.183594,47.955729 44.979167,38.364583 40.107629,45.672148 39.6875,33.072917 Z" />
    <path
       id="path2197"
       style="fill:#3aa960;fill-opacity:1;stroke:none;stroke-width:2.36659;stroke-opacity:1"
       d="m 33.602083,65.616667 v 0.529166 L 40.48125,65.88125 Z m 9.789584,3.175 -4.365625,0.264583 4.365625,0.264583 z m -8.202084,1.852083 v 0.529167 l 5.55625,-0.264584 z m 9.525,0.529167 -5.55625,0.264583 5.55625,0.264583 z M 34.13125,71.702083 v 0.529167 l 6.35,-0.264583 z" />
  </g>
  <metadata
     id="metadata1676">
    <rdf:RDF>
      <cc:Work
         rdf:about="">
        <dc:title>map_pins</dc:title>
        <dc:creator>
          <cc:Agent>
            <dc:title>Maria Maily</dc:title>
          </cc:Agent>
        </dc:creator>
        <cc:license
           rdf:resource="http://creativecommons.org/licenses/by-nc/4.0/" />
        <dc:date>05/2023</dc:date>
      </cc:Work>
      <cc:License
         rdf:about="http://creativecommons.org/licenses/by-nc/4.0/">
        <cc:permits
           rdf:resource="http://creativecommons.org/ns#Reproduction" />
        <cc:permits
           rdf:resource="http://creativecommons.org/ns#Distribution" />
        <cc:requires
           rdf:resource="http://creativecommons.org/ns#Notice" />
        <cc:requires
           rdf:resource="http://creativecommons.org/ns#Attribution" />
        <cc:prohibits
           rdf:resource="http://creativecommons.org/ns#CommercialUse" />
        <cc:permits
           rdf:resource="http://creativecommons.org/ns#DerivativeWorks" />
      </cc:License>
    </rdf:RDF>
  </metadata>
</svg>
