<?xml version="1.0" encoding="UTF-8" standalone="no"?>
<!-- Created with Inkscape (http://www.inkscape.org/) -->

<svg
   width="50mm"
   height="50mm"
   viewBox="0 0 50 50"
   version="1.1"
   id="svg1544"
   xmlns="http://www.w3.org/2000/svg"
   xmlns:svg="http://www.w3.org/2000/svg"
   xmlns:rdf="http://www.w3.org/1999/02/22-rdf-syntax-ns#"
   xmlns:cc="http://creativecommons.org/ns#"
   xmlns:dc="http://purl.org/dc/elements/1.1/">
  <defs
     id="defs1541" />
  <metadata
     id="metadata1665">
    <rdf:RDF>
      <cc:Work
         rdf:about="">
        <dc:date>05/2023</dc:date>
        <dc:creator>
          <cc:Agent>
            <dc:title>Maria Maily</dc:title>
          </cc:Agent>
        </dc:creator>
      </cc:Work>
    </rdf:RDF>
  </metadata>
  <g
     id="layer1">
    <path
       style="display:inline;fill:#81cf80;fill-opacity:1;stroke:#3c9939;stroke-width:4.065;stroke-dasharray:none;stroke-opacity:1"
       d="m 2.5408301,31.425164 c 1.0643995,4.310734 9.5515849,6.277203 9.5515849,6.277203 0.360477,2.523338 -0.786681,7.34706 3.247229,9.202578 4.03391,1.855518 10.234197,-3.481035 10.234197,-3.481035 0,0 5.882507,5.122945 9.848311,3.126004 3.965804,-1.996941 5.268078,-8.428878 5.268078,-8.428878 0,0 6.064223,-3.147953 6.97559,-7.493617 0.911367,-4.345663 -5.167495,-8.753029 -5.167495,-8.753029 0,0 3.181934,-7.324957 0.352586,-10.746968 C 40.021563,7.70541 32.32963,8.9712665 32.32963,8.9712665 c 0,0 -3.286971,-6.315932 -7.726477,-6.2374477 -4.439506,0.078484 -9.49533,7.6397782 -9.49533,7.6397782 0,0 -5.7377179,-2.1263127 -8.4443433,1.393567 -2.7066253,3.51988 0.3619928,10.987862 0.3619928,10.987862 0,0 -5.5490419,4.359404 -4.4846424,8.670138 z"
       id="path1945" />
  </g>
</svg>
