<?xml version="1.0" encoding="UTF-8" standalone="no"?>
<!-- Created with Inkscape (http://www.inkscape.org/) -->

<svg
   width="199.99998"
   height="300"
   viewBox="0 0 52.916661 79.374998"
   version="1.1"
   id="svg5"
   xmlns="http://www.w3.org/2000/svg"
   xmlns:svg="http://www.w3.org/2000/svg"
   xmlns:rdf="http://www.w3.org/1999/02/22-rdf-syntax-ns#"
   xmlns:cc="http://creativecommons.org/ns#"
   xmlns:dc="http://purl.org/dc/elements/1.1/">
  <title
     id="title4202">map_pins</title>
  <defs
     id="defs2" />
  <g
     id="layer6"
     style="display:inline"
     transform="translate(-13.229167,-13.229164)">
    <path
       id="path2989"
       style="display:inline;fill:#4b43d8;fill-opacity:1;stroke:none;stroke-width:1.74049;stroke-opacity:1"
       d="m 66.145833,39.6875 c 0,4.079437 -0.768047,10.734122 -3.911057,17.081965 -0.01914,0.03866 -0.03837,0.07731 -0.05769,0.115952 -2.645833,5.291666 -6.198189,11.653231 -7.9375,14.552083 -3.826849,6.378081 -3.859407,6.91446 -11.906253,18.520833 -0.29838,0.430369 -1.322916,2.645834 -2.645829,2.645834 -1.322921,0 -2.268018,-2.107679 -2.645837,-2.645834 C 28.794468,78.211271 28.466603,76.989476 25.135417,71.4375 23.307511,68.39099 19.84375,62.177083 17.197917,56.885417 14.124265,50.738113 13.229168,43.628682 13.229168,39.687497 c 0,-7.306266 2.96145,-13.92085 7.749467,-18.708866 4.788016,-4.788017 11.402599,-7.749467 18.708866,-7.749467 7.306268,0 13.92085,2.961451 18.708867,7.749467 1.369062,1.369061 2.588785,2.887461 3.63264,4.528668 2.606816,4.098583 4.116825,8.963052 4.116825,14.180201 z" />
    <path
       id="path3165"
       style="display:inline;fill:#ffffff;fill-opacity:1;stroke:none;stroke-width:1.09552;stroke-opacity:1"
       d="m 23.8125,31.75 c -2.204859,0 -5.291667,2.976562 -5.291667,2.976562 v 0.992188 c 0,0 3.086808,-2.976563 5.291667,-2.976563 2.204859,0 3.086808,2.976563 5.291667,2.976563 2.204858,0 3.086808,-2.976563 5.291666,-2.976563 2.204859,0 3.086808,2.976563 5.291667,2.976563 2.204859,0 3.086808,-2.976563 5.291667,-2.976563 2.204858,0 3.086808,2.976563 5.291666,2.976563 2.204859,0 3.086808,-2.976563 5.291667,-2.976563 2.204859,0 5.291667,2.976563 5.291667,2.976563 v -0.992188 c 0,0 -3.086808,-2.976562 -5.291667,-2.976562 -2.204859,0 -3.086808,2.976562 -5.291667,2.976562 -2.204858,0 -3.086808,-2.976562 -5.291666,-2.976562 -2.204859,0 -3.086808,2.976562 -5.291667,2.976562 -2.204859,0 -3.086808,-2.976562 -5.291667,-2.976562 -2.204858,0 -3.086808,2.976562 -5.291666,2.976562 -2.204859,0 -3.086808,-2.976562 -5.291667,-2.976562 z m 0,3.638021 c -2.204859,0 -5.291667,2.976562 -5.291667,2.976562 v 0.992188 c 0,0 3.086808,-2.976563 5.291667,-2.976563 2.204859,0 3.086808,2.976563 5.291667,2.976563 2.204858,0 3.086808,-2.976563 5.291666,-2.976563 2.204859,0 3.086808,2.976563 5.291667,2.976563 2.204859,0 3.086808,-2.976563 5.291667,-2.976563 2.204858,0 3.086808,2.976563 5.291666,2.976563 2.204859,0 3.086808,-2.976563 5.291667,-2.976563 2.204859,0 5.291667,2.976563 5.291667,2.976563 v -0.992188 c 0,0 -3.086808,-2.976562 -5.291667,-2.976562 -2.204859,0 -3.086808,2.976562 -5.291667,2.976562 -2.204858,0 -3.086808,-2.976562 -5.291666,-2.976562 -2.204859,0 -3.086808,2.976562 -5.291667,2.976562 -2.204859,0 -3.086808,-2.976562 -5.291667,-2.976562 -2.204858,0 -3.086808,2.976562 -5.291666,2.976562 -2.204859,0 -3.086808,-2.976562 -5.291667,-2.976562 z" />
    <path
       id="path3157"
       style="display:inline;fill:#ffffff;fill-opacity:1;stroke:none;stroke-width:1.265;stroke-opacity:1"
       d="m 53.912988,43.804045 c 0,0 -8.355527,1.308785 -11.385351,3.945495 -0.812093,0.706726 -1.468644,2.87631 -1.468644,2.87631 l 0.124023,0.234095 c 0,0 2.165047,0.671801 3.205489,0.395324 3.881763,-1.031499 9.648507,-7.217647 9.648507,-7.217647 z m -28.502653,0.06098 -0.124023,0.233577 c 0,0 5.75833,6.193791 9.638688,7.230567 1.040064,0.277889 3.206006,-0.391191 3.206006,-0.391191 l 0.124023,-0.233577 c 0,0 -0.653378,-2.170549 -1.46451,-2.878378 -3.026239,-2.640832 -11.380184,-3.961 -11.380184,-3.961 z M 39.6875,50.270833 A 1.3229166,1.3229166 0 0 0 38.364583,51.59375 1.3229166,1.3229166 0 0 0 39.6875,52.916667 1.3229166,1.3229166 0 0 0 41.010417,51.59375 1.3229166,1.3229166 0 0 0 39.6875,50.270833 Z m 0.132292,2.907833 -0.264584,0.0052 c 0,0 -1.5772,1.627817 -1.800407,2.680973 -0.832759,3.929197 2.082044,11.868526 2.082044,11.868526 l 0.264583,-0.0052 c 0,0 2.605271,-8.045811 1.62109,-11.93984 -0.263793,-1.04373 -1.902726,-2.60966 -1.902726,-2.60966 z" />
  </g>
  <metadata
     id="metadata1676">
    <rdf:RDF>
      <cc:Work
         rdf:about="">
        <dc:title>map_pins</dc:title>
        <dc:creator>
          <cc:Agent>
            <dc:title>Maria Maily</dc:title>
          </cc:Agent>
        </dc:creator>
        <cc:license
           rdf:resource="http://creativecommons.org/licenses/by-nc/4.0/" />
        <dc:date>05/2023</dc:date>
      </cc:Work>
      <cc:License
         rdf:about="http://creativecommons.org/licenses/by-nc/4.0/">
        <cc:permits
           rdf:resource="http://creativecommons.org/ns#Reproduction" />
        <cc:permits
           rdf:resource="http://creativecommons.org/ns#Distribution" />
        <cc:requires
           rdf:resource="http://creativecommons.org/ns#Notice" />
        <cc:requires
           rdf:resource="http://creativecommons.org/ns#Attribution" />
        <cc:prohibits
           rdf:resource="http://creativecommons.org/ns#CommercialUse" />
        <cc:permits
           rdf:resource="http://creativecommons.org/ns#DerivativeWorks" />
      </cc:License>
    </rdf:RDF>
  </metadata>
</svg>
