<?xml version="1.0" encoding="UTF-8" standalone="no"?>
<!-- Created with Inkscape (http://www.inkscape.org/) -->

<svg
   width="199.99998"
   height="300"
   viewBox="0 0 52.916661 79.374998"
   version="1.1"
   id="svg5"
   xmlns="http://www.w3.org/2000/svg"
   xmlns:svg="http://www.w3.org/2000/svg"
   xmlns:rdf="http://www.w3.org/1999/02/22-rdf-syntax-ns#"
   xmlns:cc="http://creativecommons.org/ns#"
   xmlns:dc="http://purl.org/dc/elements/1.1/">
  <title
     id="title4202">map_pins</title>
  <defs
     id="defs2" />
  <g
     id="layer6"
     style="display:inline"
     transform="translate(-13.229167,-13.229164)">
    <path
       id="path2989"
       style="display:inline;fill:#4b43d8;fill-opacity:1;stroke:none;stroke-width:1.74049;stroke-opacity:1"
       d="m 66.145833,39.6875 c 0,4.079437 -0.768047,10.734122 -3.911057,17.081965 -0.01914,0.03866 -0.03837,0.07731 -0.05769,0.115952 -2.645833,5.291666 -6.198189,11.653231 -7.9375,14.552083 -3.826849,6.378081 -3.859407,6.91446 -11.906253,18.520833 -0.29838,0.430369 -1.322916,2.645834 -2.645829,2.645834 -1.322921,0 -2.268018,-2.107679 -2.645837,-2.645834 C 28.794468,78.211271 28.466603,76.989476 25.135417,71.4375 23.307511,68.39099 19.84375,62.177083 17.197917,56.885417 14.124265,50.738113 13.229168,43.628682 13.229168,39.687497 c 0,-7.306266 2.96145,-13.92085 7.749467,-18.708866 4.788016,-4.788017 11.402599,-7.749467 18.708866,-7.749467 7.306268,0 13.92085,2.961451 18.708867,7.749467 1.369062,1.369061 2.588785,2.887461 3.63264,4.528668 2.606816,4.098583 4.116825,8.963052 4.116825,14.180201 z" />
    <path
       id="path3165"
       style="display:inline;fill:#ffffff;fill-opacity:1;stroke:none;stroke-width:1.09552;stroke-opacity:1"
       d="m 23.8125,29.104167 c -2.204859,0 -5.291667,2.976562 -5.291667,2.976562 v 0.992188 c 0,0 3.086808,-2.976563 5.291667,-2.976563 2.204859,0 3.086808,2.976563 5.291667,2.976563 2.204858,0 3.086808,-2.976563 5.291666,-2.976563 2.204859,0 3.086808,2.976563 5.291667,2.976563 2.204859,0 3.086808,-2.976563 5.291667,-2.976563 2.204858,0 3.086808,2.976563 5.291666,2.976563 2.204859,0 3.086808,-2.976563 5.291667,-2.976563 2.204859,0 5.291667,2.976563 5.291667,2.976563 v -0.992188 c 0,0 -3.086808,-2.976562 -5.291667,-2.976562 -2.204859,0 -3.086808,2.976562 -5.291667,2.976562 -2.204858,0 -3.086808,-2.976562 -5.291666,-2.976562 -2.204859,0 -3.086808,2.976562 -5.291667,2.976562 -2.204859,0 -3.086808,-2.976562 -5.291667,-2.976562 -2.204858,0 -3.086808,2.976562 -5.291666,2.976562 -2.204859,0 -3.086808,-2.976562 -5.291667,-2.976562 z m 0,3.638021 c -2.204859,0 -5.291667,2.976562 -5.291667,2.976562 v 0.992188 c 0,0 3.086808,-2.976563 5.291667,-2.976563 2.204859,0 3.086808,2.976563 5.291667,2.976563 2.204858,0 3.086808,-2.976563 5.291666,-2.976563 2.204859,0 3.086808,2.976563 5.291667,2.976563 2.204859,0 3.086808,-2.976563 5.291667,-2.976563 2.204858,0 3.086808,2.976563 5.291666,2.976563 2.204859,0 3.086808,-2.976563 5.291667,-2.976563 2.204859,0 5.291667,2.976563 5.291667,2.976563 V 35.71875 c 0,0 -3.086808,-2.976562 -5.291667,-2.976562 -2.204859,0 -3.086808,2.976562 -5.291667,2.976562 -2.204858,0 -3.086808,-2.976562 -5.291666,-2.976562 -2.204859,0 -3.086808,2.976562 -5.291667,2.976562 -2.204859,0 -3.086808,-2.976562 -5.291667,-2.976562 -2.204858,0 -3.086808,2.976562 -5.291666,2.976562 -2.204859,0 -3.086808,-2.976562 -5.291667,-2.976562 z" />
    <path
       id="path3157"
       style="display:inline;fill:#ffffff;fill-opacity:1;stroke:none;stroke-width:1.83058;stroke-opacity:1"
       d="m 60.002495,40.876919 c 0,0 -11.932273,1.91919 -16.259098,5.785637 -1.159704,1.036337 -2.097319,4.217794 -2.097319,4.217794 l 0.177135,0.343275 c 0,0 3.091824,0.985123 4.577653,0.5797 5.543412,-1.512581 13.778732,-10.58389 13.778732,-10.58389 z m -40.703796,0.08942 -0.177101,0.342516 c 0,0 8.22328,9.082517 13.764715,10.602836 1.485299,0.407493 4.578398,-0.57364 4.578398,-0.57364 l 0.177102,-0.342515 c 0,0 -0.933051,-3.182873 -2.091396,-4.220826 C 31.22873,42.902218 19.298699,40.966336 19.298699,40.966336 Z M 39.6875,50.359757 a 1.8892158,1.9399126 0 0 0 -1.889206,1.939912 1.8892158,1.9399126 0 0 0 1.889206,1.939914 1.8892158,1.9399126 0 0 0 1.889207,-1.939914 1.8892158,1.9399126 0 0 0 -1.889207,-1.939912 z m 0.188919,4.264019 -0.377836,0.0077 c 0,0 -2.252358,2.387016 -2.571103,3.931355 -1.189254,5.761737 2.973281,17.403895 2.973281,17.403895 l 0.377867,-0.0077 c 0,0 3.720488,-11.798303 2.315015,-17.50847 -0.376698,-1.530516 -2.717224,-3.826782 -2.717224,-3.82678 z" />
  </g>
  <metadata
     id="metadata1676">
    <rdf:RDF>
      <cc:Work
         rdf:about="">
        <dc:title>map_pins</dc:title>
        <dc:creator>
          <cc:Agent>
            <dc:title>Maria Maily</dc:title>
          </cc:Agent>
        </dc:creator>
        <cc:license
           rdf:resource="http://creativecommons.org/licenses/by-nc/4.0/" />
        <dc:date>05/2023</dc:date>
      </cc:Work>
      <cc:License
         rdf:about="http://creativecommons.org/licenses/by-nc/4.0/">
        <cc:permits
           rdf:resource="http://creativecommons.org/ns#Reproduction" />
        <cc:permits
           rdf:resource="http://creativecommons.org/ns#Distribution" />
        <cc:requires
           rdf:resource="http://creativecommons.org/ns#Notice" />
        <cc:requires
           rdf:resource="http://creativecommons.org/ns#Attribution" />
        <cc:prohibits
           rdf:resource="http://creativecommons.org/ns#CommercialUse" />
        <cc:permits
           rdf:resource="http://creativecommons.org/ns#DerivativeWorks" />
      </cc:License>
    </rdf:RDF>
  </metadata>
</svg>
