<?xml version="1.0" encoding="UTF-8" standalone="no"?>
<!-- Created with Inkscape (http://www.inkscape.org/) -->

<svg
   width="199.99998"
   height="300"
   viewBox="0 0 52.916661 79.374998"
   version="1.1"
   id="svg5"
   xmlns="http://www.w3.org/2000/svg"
   xmlns:svg="http://www.w3.org/2000/svg"
   xmlns:rdf="http://www.w3.org/1999/02/22-rdf-syntax-ns#"
   xmlns:cc="http://creativecommons.org/ns#"
   xmlns:dc="http://purl.org/dc/elements/1.1/">
  <title
     id="title4202">map_pins</title>
  <defs
     id="defs2" />
  <g
     id="layer8"
     style="display:inline"
     transform="translate(-13.229167,-13.229164)">
    <path
       id="path3239"
       style="display:inline;fill:#784718;fill-opacity:1;stroke:none;stroke-width:1.74049;stroke-opacity:1"
       d="m 66.145833,39.6875 c 0,4.079437 -0.768047,10.734122 -3.911057,17.081965 -0.01914,0.03866 -0.03837,0.07731 -0.05769,0.115952 -2.645833,5.291666 -6.198189,11.653231 -7.9375,14.552083 -3.826849,6.378081 -3.859407,6.91446 -11.906253,18.520833 -0.29838,0.430369 -1.322916,2.645834 -2.645829,2.645834 -1.322921,0 -2.268018,-2.107679 -2.645837,-2.645834 C 28.794468,78.211271 28.466603,76.989476 25.135417,71.4375 23.307511,68.39099 19.84375,62.177083 17.197917,56.885417 14.124265,50.738113 13.229168,43.628682 13.229168,39.687497 c 0,-7.306266 2.96145,-13.92085 7.749467,-18.708866 4.788016,-4.788017 11.402599,-7.749467 18.708866,-7.749467 7.306268,0 13.92085,2.961451 18.708867,7.749467 1.369062,1.369061 2.588785,2.887461 3.63264,4.528668 2.606816,4.098583 4.116825,8.963052 4.116825,14.180201 z" />
    <path
       id="path3245"
       style="display:inline;fill:#ffffff;fill-opacity:1;stroke:none;stroke-width:1.09552;stroke-opacity:1"
       d="m 24.648108,40.341724 c -2.204859,0 -5.291667,2.976562 -5.291667,2.976562 v 0.992188 c 0,0 3.086808,-2.976563 5.291667,-2.976563 2.204859,0 3.086808,2.976563 5.291667,2.976563 2.204858,0 3.086807,-2.976563 5.291666,-2.976563 2.204859,0 3.086808,2.976563 5.291667,2.976563 2.204859,0 3.086808,-2.976563 5.291667,-2.976563 2.204858,0 3.086807,2.976563 5.291666,2.976563 2.204859,0 3.086808,-2.976563 5.291667,-2.976563 2.204859,0 5.291667,2.976563 5.291667,2.976563 v -0.992188 c 0,0 -3.086808,-2.976562 -5.291667,-2.976562 -2.204859,0 -3.086808,2.976562 -5.291667,2.976562 -2.204859,0 -3.086808,-2.976562 -5.291666,-2.976562 -2.204859,0 -3.086808,2.976562 -5.291667,2.976562 -2.204859,0 -3.086808,-2.976562 -5.291667,-2.976562 -2.204859,0 -3.086808,2.976562 -5.291666,2.976562 -2.204859,0 -3.086808,-2.976562 -5.291667,-2.976562 z m 0,2.645833 c -2.204859,0 -5.291667,2.976562 -5.291667,2.976562 v 0.992188 c 0,0 3.086808,-2.976563 5.291667,-2.976563 2.204859,0 3.086808,2.976563 5.291667,2.976563 2.204858,0 3.086807,-2.976563 5.291666,-2.976563 2.204859,0 3.086808,2.976563 5.291667,2.976563 2.204859,0 3.086808,-2.976563 5.291667,-2.976563 2.204858,0 3.086807,2.976563 5.291666,2.976563 2.204859,0 3.086808,-2.976563 5.291667,-2.976563 2.204859,0 5.291667,2.976563 5.291667,2.976563 v -0.992188 c 0,0 -3.086808,-2.976562 -5.291667,-2.976562 -2.204859,0 -3.086808,2.976562 -5.291667,2.976562 -2.204859,0 -3.086808,-2.976562 -5.291666,-2.976562 -2.204859,0 -3.086808,2.976562 -5.291667,2.976562 -2.204859,0 -3.086808,-2.976562 -5.291667,-2.976562 -2.204859,0 -3.086808,2.976562 -5.291666,2.976562 -2.204859,0 -3.086808,-2.976562 -5.291667,-2.976562 z m 0,2.645833 c -2.204859,0 -5.291667,2.976563 -5.291667,2.976563 v 0.992187 c 0,0 3.086808,-2.976562 5.291667,-2.976562 2.204859,0 3.086808,2.976562 5.291667,2.976562 2.204858,0 3.086807,-2.976562 5.291666,-2.976562 2.204859,0 3.086808,2.976562 5.291667,2.976562 2.204859,0 3.086808,-2.976562 5.291667,-2.976562 2.204858,0 3.086807,2.976562 5.291666,2.976562 2.204859,0 3.086808,-2.976562 5.291667,-2.976562 2.204859,0 5.291667,2.976562 5.291667,2.976562 v -0.992187 c 0,0 -3.086808,-2.976563 -5.291667,-2.976563 -2.204859,0 -3.086808,2.976563 -5.291667,2.976563 -2.204859,0 -3.086808,-2.976563 -5.291666,-2.976563 -2.204859,0 -3.086808,2.976563 -5.291667,2.976563 -2.204859,0 -3.086808,-2.976563 -5.291667,-2.976563 -2.204859,0 -3.086808,2.976563 -5.291666,2.976563 -2.204859,0 -3.086808,-2.976563 -5.291667,-2.976563 z" />
    <path
       id="path3325"
       style="fill:#ffffff;fill-opacity:1;stroke:none;stroke-width:1.265;stroke-opacity:1"
       d="m 46.470086,26.891017 -2.982888,1.801942 0.155479,-0.932286 -1.304895,-0.21762 -0.341986,2.050622 -5.96569,3.603374 1.304895,0.21762 1.486216,-0.869623 -1.347711,8.081173 1.726517,1.501571 1.5875,0.529166 1.322917,-0.529166 2.879423,-2.339994 2.412244,0.752494 c 0,0 3.27661,1.460806 3.070382,2.47608 0.158637,-0.888365 1.396401,-8.296914 1.396401,-8.296914 l 1.124847,1.306646 1.304896,0.217619 z" />
    <path
       id="path3503"
       style="display:inline;fill:#fefdfb;fill-opacity:1;stroke:none;stroke-width:1.265;stroke-opacity:1"
       d="m 30.204358,30.750578 -2.116667,2.970878 1.058334,-0.371554 -2.116667,2.970878 1.410767,-0.371036 -1.678968,2.651001 -0.702799,-0.61495 1.090889,-0.02067 -2.084627,-1.629358 0.835091,0.04806 -2.08411,-1.629358 -0.980819,2.457214 0.697115,-0.461987 -0.980302,2.457214 0.952397,-0.531234 -0.911573,2.712496 0.952914,-0.531233 1.92598,0.0279 0.64854,0.372587 2.761588,0.07648 -0.260449,-0.213424 0.877466,0.02791 0.01137,1.644861 0.694531,0.128157 0.694014,0.01757 0.01137,-1.790588 1.631425,0.09302 0.838192,-0.436666 0.199988,-0.42633 -0.905888,-1.458309 1.411283,0.371554 -2.116666,-3.341915 1.411283,0.371036 -2.116667,-2.970878 1.058334,0.371554 z m -2.469617,8.169527 -0.135909,0.413928 -0.332279,-0.290938 z m -0.316776,0.965316 -0.0646,0.195853 -0.232027,-0.190169 z" />
    <path
       style="display:inline;fill:#784718;fill-opacity:1;stroke:none;stroke-width:1.09552;stroke-opacity:1"
       d="m 19.356274,42.260082 c 0,0 3.086806,-2.976563 5.291667,-2.976563 2.204861,0 3.086805,2.976563 5.291666,2.976563 2.204861,0 3.086806,-2.976563 5.291667,-2.976563 2.204861,0 3.086806,2.976563 5.291667,2.976563 2.204861,0 3.086805,-2.976563 5.291666,-2.976563 2.204861,0 3.086806,2.976563 5.291667,2.976563 2.204861,0 3.086805,-2.976563 5.291666,-2.976563 2.204861,0 5.291667,2.976563 5.291667,2.976563 v 0 0.992187 c 0,0 -3.086806,-2.976563 -5.291667,-2.976563 -2.204861,0 -3.086805,2.976563 -5.291666,2.976563 -2.204861,0 -3.086806,-2.976563 -5.291667,-2.976563 -2.204861,0 -3.086805,2.976563 -5.291666,2.976563 -2.204861,0 -3.086806,-2.976563 -5.291667,-2.976563 -2.204861,0 -3.086806,2.976563 -5.291667,2.976563 -2.204861,0 -3.086805,-2.976563 -5.291666,-2.976563 -2.204861,0 -5.291667,2.976563 -5.291667,2.976563 z"
       id="path3331" />
    <path
       id="rect3439"
       style="fill:#784718;fill-opacity:1;stroke:none;stroke-width:1.265;stroke-opacity:1"
       d="m 46.15104,26.290893 -1.2e-5,2.381133 2.116582,1.24e-4 1.2e-5,-2.381134 z m 5.564752,-0.04474 -1.1e-5,2.381133 2.116582,1.24e-4 1.1e-5,-2.381134 z m -6.05886,4.976379 -2.74e-4,3.969122 2.575418,-0.0853 c 0.05256,0.04241 0.07073,-1.237725 0.07073,-1.237725 l -1.86e-4,-2.646194 z"
       transform="rotate(9.4681738)" />
  </g>
  <metadata
     id="metadata1676">
    <rdf:RDF>
      <cc:Work
         rdf:about="">
        <dc:title>map_pins</dc:title>
        <dc:creator>
          <cc:Agent>
            <dc:title>Maria Maily</dc:title>
          </cc:Agent>
        </dc:creator>
        <cc:license
           rdf:resource="http://creativecommons.org/licenses/by-nc/4.0/" />
        <dc:date>05/2023</dc:date>
      </cc:Work>
      <cc:License
         rdf:about="http://creativecommons.org/licenses/by-nc/4.0/">
        <cc:permits
           rdf:resource="http://creativecommons.org/ns#Reproduction" />
        <cc:permits
           rdf:resource="http://creativecommons.org/ns#Distribution" />
        <cc:requires
           rdf:resource="http://creativecommons.org/ns#Notice" />
        <cc:requires
           rdf:resource="http://creativecommons.org/ns#Attribution" />
        <cc:prohibits
           rdf:resource="http://creativecommons.org/ns#CommercialUse" />
        <cc:permits
           rdf:resource="http://creativecommons.org/ns#DerivativeWorks" />
      </cc:License>
    </rdf:RDF>
  </metadata>
</svg>
