<?xml version="1.0" encoding="UTF-8" standalone="no"?>
<!-- Created with Inkscape (http://www.inkscape.org/) -->

<svg
   width="199.99998"
   height="300"
   viewBox="0 0 52.916661 79.374998"
   version="1.1"
   id="svg5"
   xmlns="http://www.w3.org/2000/svg"
   xmlns:svg="http://www.w3.org/2000/svg"
   xmlns:rdf="http://www.w3.org/1999/02/22-rdf-syntax-ns#"
   xmlns:cc="http://creativecommons.org/ns#"
   xmlns:dc="http://purl.org/dc/elements/1.1/">
  <title
     id="title4202">map_pins</title>
  <defs
     id="defs2" />
  <g
     id="g460"
     style="display:inline"
     transform="translate(-13.229167,-13.229164)">
    <path
       id="path454"
       style="display:inline;fill:#4b43d8;fill-opacity:1;stroke:none;stroke-width:1.74049;stroke-opacity:1"
       d="m 66.145833,39.6875 c 0,4.079437 -0.768047,10.734122 -3.911057,17.081965 -0.01914,0.03866 -0.03837,0.07731 -0.05769,0.115952 -2.645833,5.291666 -6.198189,11.653231 -7.9375,14.552083 -3.826849,6.378081 -3.859407,6.91446 -11.906253,18.520833 -0.29838,0.430369 -1.322916,2.645834 -2.645829,2.645834 -1.322921,0 -2.268018,-2.107679 -2.645837,-2.645834 C 28.794468,78.211271 28.466603,76.989476 25.135417,71.4375 23.307511,68.39099 19.84375,62.177083 17.197917,56.885417 14.124265,50.738113 13.229168,43.628682 13.229168,39.687497 c 0,-7.306266 2.96145,-13.92085 7.749467,-18.708866 4.788016,-4.788017 11.402599,-7.749467 18.708866,-7.749467 7.306268,0 13.92085,2.961451 18.708867,7.749467 1.369062,1.369061 2.588785,2.887461 3.63264,4.528668 2.606816,4.098583 4.116825,8.963052 4.116825,14.180201 z" />
    <path
       id="path456"
       style="display:inline;fill:#ffffff;fill-opacity:1;stroke:none;stroke-width:1.09552;stroke-opacity:1"
       d="m 23.8125,31.75 c -2.204859,0 -5.291667,2.976562 -5.291667,2.976562 v 0.992188 c 0,0 3.086808,-2.976563 5.291667,-2.976563 2.204859,0 3.086808,2.976563 5.291667,2.976563 2.204858,0 3.086808,-2.976563 5.291666,-2.976563 2.204859,0 3.086808,2.976563 5.291667,2.976563 2.204859,0 3.086808,-2.976563 5.291667,-2.976563 2.204858,0 3.086808,2.976563 5.291666,2.976563 2.204859,0 3.086808,-2.976563 5.291667,-2.976563 2.204859,0 5.291667,2.976563 5.291667,2.976563 v -0.992188 c 0,0 -3.086808,-2.976562 -5.291667,-2.976562 -2.204859,0 -3.086808,2.976562 -5.291667,2.976562 -2.204858,0 -3.086808,-2.976562 -5.291666,-2.976562 -2.204859,0 -3.086808,2.976562 -5.291667,2.976562 -2.204859,0 -3.086808,-2.976562 -5.291667,-2.976562 -2.204858,0 -3.086808,2.976562 -5.291666,2.976562 -2.204859,0 -3.086808,-2.976562 -5.291667,-2.976562 z m 0,3.638021 c -2.204859,0 -5.291667,2.976562 -5.291667,2.976562 v 0.992188 c 0,0 3.086808,-2.976563 5.291667,-2.976563 2.204859,0 3.086808,2.976563 5.291667,2.976563 2.204858,0 3.086808,-2.976563 5.291666,-2.976563 2.204859,0 3.086808,2.976563 5.291667,2.976563 2.204859,0 3.086808,-2.976563 5.291667,-2.976563 2.204858,0 3.086808,2.976563 5.291666,2.976563 2.204859,0 3.086808,-2.976563 5.291667,-2.976563 2.204859,0 5.291667,2.976563 5.291667,2.976563 v -0.992188 c 0,0 -3.086808,-2.976562 -5.291667,-2.976562 -2.204859,0 -3.086808,2.976562 -5.291667,2.976562 -2.204858,0 -3.086808,-2.976562 -5.291666,-2.976562 -2.204859,0 -3.086808,2.976562 -5.291667,2.976562 -2.204859,0 -3.086808,-2.976562 -5.291667,-2.976562 -2.204858,0 -3.086808,2.976562 -5.291666,2.976562 -2.204859,0 -3.086808,-2.976562 -5.291667,-2.976562 z" />
    <path
       id="path516"
       style="fill:#fefffe;fill-opacity:1;stroke-width:1.265"
       d="m 40.415104,50.336462 c 0,0 -1.914199,2.439846 -2.050521,3.903121 -0.176085,1.890083 1.687426,3.545394 1.671733,5.443596 -0.01489,1.80147 -1.805943,3.343211 -1.671733,5.139738 0.220374,2.949908 3.96875,7.9375 3.96875,7.9375 0,0 -1.551962,-5.264971 -1.322917,-7.9375 0.140492,-1.639262 1.730547,-3.017605 1.627808,-4.659664 -0.137683,-2.200556 -2.636698,-3.740186 -2.942973,-5.92367 -0.183765,-1.310089 0.719853,-3.903121 0.719853,-3.903121 z m 1.918229,22.423955 c 0,0 3.719268,-3.56261 3.560506,-5.83582 -0.05702,-0.816409 -1.417538,-1.091223 -1.557527,-1.897558 -0.332796,-1.916884 2.203015,-3.564751 1.965771,-5.495789 -0.193881,-1.578081 -2.645833,-3.96875 -2.645833,-3.96875 0,0 1.421769,2.577783 1.322916,3.96875 -0.139799,1.967124 -2.645833,3.319581 -2.645833,5.291667 0,0.986042 1.215323,1.665678 1.322917,2.645833 0.198393,1.807317 -1.322917,5.291667 -1.322917,5.291667 z" />
    <path
       id="path1277"
       style="fill:#fefffe;fill-opacity:1;stroke-width:1.265"
       d="m 44.317708,42.333333 a 0.66145831,0.66145831 0 0 0 -0.661458,0.661459 0.66145831,0.66145831 0 0 0 0.661458,0.661458 0.66145831,0.66145831 0 0 0 0.661458,-0.661458 0.66145831,0.66145831 0 0 0 -0.661458,-0.661459 z m -2.645833,3.96875 a 0.66145831,0.66145831 0 0 0 -0.661459,0.661459 0.66145831,0.66145831 0 0 0 0.661459,0.661458 0.66145831,0.66145831 0 0 0 0.661458,-0.661458 0.66145831,0.66145831 0 0 0 -0.661458,-0.661459 z m 2.645833,3.96875 a 0.66145831,0.66145831 0 0 0 -0.661458,0.661459 0.66145831,0.66145831 0 0 0 0.661458,0.661458 0.66145831,0.66145831 0 0 0 0.661458,-0.661458 0.66145831,0.66145831 0 0 0 -0.661458,-0.661459 z" />
    <path
       id="path1337"
       style="fill:#fefffe;fill-opacity:1;stroke-width:1.265"
       d="m 36.521285,69.28776 c -0.09094,-1.33e-4 -0.182026,0.01008 -0.273368,0.03307 -0.909157,0.228854 -1.883282,1.179668 -1.852084,2.116667 0.02075,0.623282 0.699289,1.322917 1.322917,1.322917 h 3.96875 c 0.986043,0 0.66271,-0.867137 0.529167,-1.322917 -0.213322,-0.728068 -1.182503,-0.966191 -1.852084,-1.322917 -0.58191,-0.310017 -1.206686,-0.825885 -1.843298,-0.826823 z m 8.164876,2.414323 c -0.261183,0.0051 -0.594367,0.09001 -0.768945,0.264584 -0.264583,0.264582 0,0.79375 0,0.79375 h 1.058333 c 0,0 0.05341,-1.058335 -0.264583,-1.058334 -0.0083,0 -0.01638,-1.65e-4 -0.02481,0 z" />
  </g>
  <metadata
     id="metadata1676">
    <rdf:RDF>
      <cc:Work
         rdf:about="">
        <dc:title>map_pins</dc:title>
        <dc:creator>
          <cc:Agent>
            <dc:title>Maria Maily</dc:title>
          </cc:Agent>
        </dc:creator>
        <cc:license
           rdf:resource="http://creativecommons.org/licenses/by-nc/4.0/" />
        <dc:date>05/2023</dc:date>
      </cc:Work>
      <cc:License
         rdf:about="http://creativecommons.org/licenses/by-nc/4.0/">
        <cc:permits
           rdf:resource="http://creativecommons.org/ns#Reproduction" />
        <cc:permits
           rdf:resource="http://creativecommons.org/ns#Distribution" />
        <cc:requires
           rdf:resource="http://creativecommons.org/ns#Notice" />
        <cc:requires
           rdf:resource="http://creativecommons.org/ns#Attribution" />
        <cc:prohibits
           rdf:resource="http://creativecommons.org/ns#CommercialUse" />
        <cc:permits
           rdf:resource="http://creativecommons.org/ns#DerivativeWorks" />
      </cc:License>
    </rdf:RDF>
  </metadata>
</svg>
